<mxfile host="Electron" agent="Mozilla/5.0 (Macintosh; Intel Mac OS X 10_15_7) AppleWebKit/537.36 (KHTML, like Gecko) draw.io/24.7.5 Chrome/126.0.6478.183 Electron/31.3.0 Safari/537.36" version="24.7.5">
  <diagram id="C5RBs43oDa-KdzZeNtuy" name="Page-1">
    <mxGraphModel dx="1004" dy="635" grid="1" gridSize="10" guides="1" tooltips="1" connect="1" arrows="1" fold="1" page="1" pageScale="1" pageWidth="827" pageHeight="1169" math="0" shadow="0">
      <root>
        <mxCell id="WIyWlLk6GJQsqaUBKTNV-0" />
        <mxCell id="WIyWlLk6GJQsqaUBKTNV-1" parent="WIyWlLk6GJQsqaUBKTNV-0" />
        <mxCell id="-lmqkk2ib4f_wIu81n4l-2" style="edgeStyle=orthogonalEdgeStyle;rounded=0;orthogonalLoop=1;jettySize=auto;html=1;" edge="1" parent="WIyWlLk6GJQsqaUBKTNV-1" source="WIyWlLk6GJQsqaUBKTNV-3" target="-lmqkk2ib4f_wIu81n4l-0">
          <mxGeometry relative="1" as="geometry" />
        </mxCell>
        <mxCell id="WIyWlLk6GJQsqaUBKTNV-3" value="插件启动" style="rounded=1;whiteSpace=wrap;html=1;fontSize=12;glass=0;strokeWidth=1;shadow=0;fillColor=#60a917;fontColor=#ffffff;strokeColor=#2D7600;" parent="WIyWlLk6GJQsqaUBKTNV-1" vertex="1">
          <mxGeometry x="160" y="80" width="120" height="40" as="geometry" />
        </mxCell>
        <mxCell id="-lmqkk2ib4f_wIu81n4l-14" style="edgeStyle=orthogonalEdgeStyle;rounded=0;orthogonalLoop=1;jettySize=auto;html=1;" edge="1" parent="WIyWlLk6GJQsqaUBKTNV-1" source="-lmqkk2ib4f_wIu81n4l-0" target="-lmqkk2ib4f_wIu81n4l-13">
          <mxGeometry relative="1" as="geometry" />
        </mxCell>
        <mxCell id="-lmqkk2ib4f_wIu81n4l-29" style="edgeStyle=orthogonalEdgeStyle;rounded=0;orthogonalLoop=1;jettySize=auto;html=1;" edge="1" parent="WIyWlLk6GJQsqaUBKTNV-1" source="-lmqkk2ib4f_wIu81n4l-0" target="-lmqkk2ib4f_wIu81n4l-28">
          <mxGeometry relative="1" as="geometry" />
        </mxCell>
        <mxCell id="-lmqkk2ib4f_wIu81n4l-0" value="初始化地图" style="rounded=1;whiteSpace=wrap;html=1;" vertex="1" parent="WIyWlLk6GJQsqaUBKTNV-1">
          <mxGeometry x="160" y="160" width="120" height="40" as="geometry" />
        </mxCell>
        <mxCell id="-lmqkk2ib4f_wIu81n4l-7" style="edgeStyle=orthogonalEdgeStyle;rounded=0;orthogonalLoop=1;jettySize=auto;html=1;exitX=1;exitY=0.25;exitDx=0;exitDy=0;" edge="1" parent="WIyWlLk6GJQsqaUBKTNV-1" source="-lmqkk2ib4f_wIu81n4l-1" target="-lmqkk2ib4f_wIu81n4l-4">
          <mxGeometry relative="1" as="geometry">
            <Array as="points">
              <mxPoint x="300" y="360" />
              <mxPoint x="300" y="360" />
            </Array>
          </mxGeometry>
        </mxCell>
        <mxCell id="-lmqkk2ib4f_wIu81n4l-8" style="edgeStyle=orthogonalEdgeStyle;rounded=0;orthogonalLoop=1;jettySize=auto;html=1;exitX=1;exitY=0.75;exitDx=0;exitDy=0;" edge="1" parent="WIyWlLk6GJQsqaUBKTNV-1" source="-lmqkk2ib4f_wIu81n4l-1" target="-lmqkk2ib4f_wIu81n4l-5">
          <mxGeometry relative="1" as="geometry">
            <Array as="points">
              <mxPoint x="260" y="440" />
            </Array>
          </mxGeometry>
        </mxCell>
        <mxCell id="-lmqkk2ib4f_wIu81n4l-32" style="edgeStyle=orthogonalEdgeStyle;rounded=0;orthogonalLoop=1;jettySize=auto;html=1;" edge="1" parent="WIyWlLk6GJQsqaUBKTNV-1" source="-lmqkk2ib4f_wIu81n4l-1" target="-lmqkk2ib4f_wIu81n4l-31">
          <mxGeometry relative="1" as="geometry" />
        </mxCell>
        <mxCell id="-lmqkk2ib4f_wIu81n4l-34" style="edgeStyle=orthogonalEdgeStyle;rounded=0;orthogonalLoop=1;jettySize=auto;html=1;exitX=1;exitY=0;exitDx=0;exitDy=0;entryX=0;entryY=0;entryDx=0;entryDy=0;" edge="1" parent="WIyWlLk6GJQsqaUBKTNV-1" source="-lmqkk2ib4f_wIu81n4l-1" target="-lmqkk2ib4f_wIu81n4l-11">
          <mxGeometry relative="1" as="geometry" />
        </mxCell>
        <mxCell id="-lmqkk2ib4f_wIu81n4l-35" value="初始化" style="edgeLabel;html=1;align=center;verticalAlign=middle;resizable=0;points=[];" vertex="1" connectable="0" parent="-lmqkk2ib4f_wIu81n4l-34">
          <mxGeometry x="-0.0227" y="-1" relative="1" as="geometry">
            <mxPoint as="offset" />
          </mxGeometry>
        </mxCell>
        <mxCell id="-lmqkk2ib4f_wIu81n4l-1" value="进行游戏" style="rounded=1;whiteSpace=wrap;html=1;" vertex="1" parent="WIyWlLk6GJQsqaUBKTNV-1">
          <mxGeometry x="160" y="320" width="120" height="160" as="geometry" />
        </mxCell>
        <mxCell id="-lmqkk2ib4f_wIu81n4l-4" value="注册事件" style="rounded=1;whiteSpace=wrap;html=1;" vertex="1" parent="WIyWlLk6GJQsqaUBKTNV-1">
          <mxGeometry x="320" y="330" width="80" height="60" as="geometry" />
        </mxCell>
        <mxCell id="-lmqkk2ib4f_wIu81n4l-5" value="计时器" style="rounded=1;whiteSpace=wrap;html=1;" vertex="1" parent="WIyWlLk6GJQsqaUBKTNV-1">
          <mxGeometry x="320" y="410" width="80" height="60" as="geometry" />
        </mxCell>
        <mxCell id="-lmqkk2ib4f_wIu81n4l-11" value="状态管理" style="rounded=0;whiteSpace=wrap;html=1;fillColor=#647687;fontColor=#ffffff;strokeColor=#314354;" vertex="1" parent="WIyWlLk6GJQsqaUBKTNV-1">
          <mxGeometry x="440" y="320" width="120" height="60" as="geometry" />
        </mxCell>
        <mxCell id="-lmqkk2ib4f_wIu81n4l-23" style="edgeStyle=orthogonalEdgeStyle;rounded=0;orthogonalLoop=1;jettySize=auto;html=1;exitX=1;exitY=0.25;exitDx=0;exitDy=0;entryX=0;entryY=0.5;entryDx=0;entryDy=0;" edge="1" parent="WIyWlLk6GJQsqaUBKTNV-1" source="-lmqkk2ib4f_wIu81n4l-12" target="-lmqkk2ib4f_wIu81n4l-20">
          <mxGeometry relative="1" as="geometry">
            <Array as="points">
              <mxPoint x="560" y="100" />
            </Array>
          </mxGeometry>
        </mxCell>
        <mxCell id="-lmqkk2ib4f_wIu81n4l-12" value="地图管理" style="rounded=0;whiteSpace=wrap;html=1;align=center;fillColor=#f0a30a;fontColor=#000000;strokeColor=#BD7000;" vertex="1" parent="WIyWlLk6GJQsqaUBKTNV-1">
          <mxGeometry x="440" y="80" width="120" height="120" as="geometry" />
        </mxCell>
        <mxCell id="-lmqkk2ib4f_wIu81n4l-15" style="edgeStyle=orthogonalEdgeStyle;rounded=0;orthogonalLoop=1;jettySize=auto;html=1;" edge="1" parent="WIyWlLk6GJQsqaUBKTNV-1" source="-lmqkk2ib4f_wIu81n4l-13" target="-lmqkk2ib4f_wIu81n4l-12">
          <mxGeometry relative="1" as="geometry" />
        </mxCell>
        <mxCell id="-lmqkk2ib4f_wIu81n4l-13" value="随机地图" style="rounded=1;whiteSpace=wrap;html=1;" vertex="1" parent="WIyWlLk6GJQsqaUBKTNV-1">
          <mxGeometry x="320" y="160" width="80" height="40" as="geometry" />
        </mxCell>
        <mxCell id="-lmqkk2ib4f_wIu81n4l-24" style="edgeStyle=orthogonalEdgeStyle;rounded=0;orthogonalLoop=1;jettySize=auto;html=1;" edge="1" parent="WIyWlLk6GJQsqaUBKTNV-1" source="-lmqkk2ib4f_wIu81n4l-20" target="-lmqkk2ib4f_wIu81n4l-21">
          <mxGeometry relative="1" as="geometry" />
        </mxCell>
        <mxCell id="-lmqkk2ib4f_wIu81n4l-20" value="卸载地图" style="rounded=1;whiteSpace=wrap;html=1;" vertex="1" parent="WIyWlLk6GJQsqaUBKTNV-1">
          <mxGeometry x="600" y="85" width="80" height="30" as="geometry" />
        </mxCell>
        <mxCell id="-lmqkk2ib4f_wIu81n4l-25" style="edgeStyle=orthogonalEdgeStyle;rounded=0;orthogonalLoop=1;jettySize=auto;html=1;" edge="1" parent="WIyWlLk6GJQsqaUBKTNV-1" source="-lmqkk2ib4f_wIu81n4l-21" target="-lmqkk2ib4f_wIu81n4l-22">
          <mxGeometry relative="1" as="geometry" />
        </mxCell>
        <mxCell id="-lmqkk2ib4f_wIu81n4l-21" value="替换地图" style="rounded=1;whiteSpace=wrap;html=1;" vertex="1" parent="WIyWlLk6GJQsqaUBKTNV-1">
          <mxGeometry x="600" y="125" width="80" height="30" as="geometry" />
        </mxCell>
        <mxCell id="-lmqkk2ib4f_wIu81n4l-26" style="edgeStyle=orthogonalEdgeStyle;rounded=0;orthogonalLoop=1;jettySize=auto;html=1;" edge="1" parent="WIyWlLk6GJQsqaUBKTNV-1" source="-lmqkk2ib4f_wIu81n4l-22" target="-lmqkk2ib4f_wIu81n4l-12">
          <mxGeometry relative="1" as="geometry">
            <Array as="points">
              <mxPoint x="570" y="180" />
              <mxPoint x="570" y="180" />
            </Array>
          </mxGeometry>
        </mxCell>
        <mxCell id="-lmqkk2ib4f_wIu81n4l-22" value="加载地图" style="rounded=1;whiteSpace=wrap;html=1;" vertex="1" parent="WIyWlLk6GJQsqaUBKTNV-1">
          <mxGeometry x="600" y="165" width="80" height="30" as="geometry" />
        </mxCell>
        <mxCell id="-lmqkk2ib4f_wIu81n4l-30" style="edgeStyle=orthogonalEdgeStyle;rounded=0;orthogonalLoop=1;jettySize=auto;html=1;" edge="1" parent="WIyWlLk6GJQsqaUBKTNV-1" source="-lmqkk2ib4f_wIu81n4l-28" target="-lmqkk2ib4f_wIu81n4l-1">
          <mxGeometry relative="1" as="geometry" />
        </mxCell>
        <mxCell id="-lmqkk2ib4f_wIu81n4l-28" value="等待开始" style="rounded=1;whiteSpace=wrap;html=1;" vertex="1" parent="WIyWlLk6GJQsqaUBKTNV-1">
          <mxGeometry x="160" y="240" width="120" height="40" as="geometry" />
        </mxCell>
        <mxCell id="-lmqkk2ib4f_wIu81n4l-33" style="edgeStyle=orthogonalEdgeStyle;rounded=0;orthogonalLoop=1;jettySize=auto;html=1;" edge="1" parent="WIyWlLk6GJQsqaUBKTNV-1" source="-lmqkk2ib4f_wIu81n4l-31" target="-lmqkk2ib4f_wIu81n4l-0">
          <mxGeometry relative="1" as="geometry">
            <Array as="points">
              <mxPoint x="80" y="540" />
              <mxPoint x="80" y="180" />
            </Array>
          </mxGeometry>
        </mxCell>
        <mxCell id="-lmqkk2ib4f_wIu81n4l-37" style="edgeStyle=orthogonalEdgeStyle;rounded=0;orthogonalLoop=1;jettySize=auto;html=1;" edge="1" parent="WIyWlLk6GJQsqaUBKTNV-1" source="-lmqkk2ib4f_wIu81n4l-31" target="-lmqkk2ib4f_wIu81n4l-36">
          <mxGeometry relative="1" as="geometry" />
        </mxCell>
        <mxCell id="-lmqkk2ib4f_wIu81n4l-31" value="结束游戏" style="rounded=1;whiteSpace=wrap;html=1;" vertex="1" parent="WIyWlLk6GJQsqaUBKTNV-1">
          <mxGeometry x="160" y="520" width="120" height="40" as="geometry" />
        </mxCell>
        <mxCell id="-lmqkk2ib4f_wIu81n4l-36" value="插件关闭" style="rounded=1;whiteSpace=wrap;html=1;fontSize=12;glass=0;strokeWidth=1;shadow=0;fillColor=#e51400;fontColor=#ffffff;strokeColor=#B20000;" vertex="1" parent="WIyWlLk6GJQsqaUBKTNV-1">
          <mxGeometry x="160" y="600" width="120" height="40" as="geometry" />
        </mxCell>
      </root>
    </mxGraphModel>
  </diagram>
</mxfile>
